<svg width="1200" height="630" viewBox="0 0 1200 630" fill="none" xmlns="http://www.w3.org/2000/svg">
  <rect width="1200" height="630" fill="#0D1B4B"/>
  <line x1="0" y1="120" x2="1200" y2="0" stroke="white" stroke-width="1.5" opacity="0.04"/>
  <line x1="0" y1="280" x2="1200" y2="160" stroke="white" stroke-width="1.5" opacity="0.04"/>
  <line x1="0" y1="440" x2="1200" y2="320" stroke="white" stroke-width="1.5" opacity="0.04"/>
  <line x1="0" y1="600" x2="1200" y2="480" stroke="white" stroke-width="1.5" opacity="0.04"/>
  <defs>
    <linearGradient id="ogCartVendor" x1="0%" y1="0%" x2="100%" y2="100%">
      <stop offset="0%" stop-color="#FF6B00"/>
      <stop offset="100%" stop-color="#F59E0B"/>
    </linearGradient>
  </defs>
  <rect x="10" y="72" width="36" height="14" rx="7" fill="white" opacity="0.9"/>
  <rect x="10" y="94" width="28" height="14" rx="7" fill="white" opacity="0.75"/>
  <rect x="10" y="116" width="20" height="14" rx="7" fill="white" opacity="0.6"/>
  <text x="52" y="200" font-family="'Plus Jakarta Sans', 'Inter', sans-serif" font-weight="800" font-size="176" fill="white" letter-spacing="-8">AJK</text>
  <path d="M230,210 L252,210 L282,275 L355,275 L362,240 L295,240" stroke="url(#ogCartVendor)" stroke-width="13" fill="none" stroke-linecap="round" stroke-linejoin="round"/>
  <circle cx="284" cy="296" r="11" fill="url(#ogCartVendor)"/>
  <circle cx="353" cy="296" r="11" fill="url(#ogCartVendor)"/>
  <text x="10" y="360" font-family="'Plus Jakarta Sans', 'Inter', sans-serif" font-weight="800" font-size="52" fill="white" letter-spacing="-1">ajkmart</text>
  <text x="12" y="402" font-family="'Inter', sans-serif" font-weight="600" font-size="18" fill="#F59E0B" letter-spacing="4">FAST HOME DELIVERY</text>
  <line x1="420" y1="80" x2="420" y2="540" stroke="white" stroke-width="1" opacity="0.1"/>
  <text x="470" y="200" font-family="'Plus Jakarta Sans', 'Inter', sans-serif" font-weight="800" font-size="58" fill="white" letter-spacing="-1">Grow Your</text>
  <text x="470" y="270" font-family="'Plus Jakarta Sans', 'Inter', sans-serif" font-weight="800" font-size="58" fill="#F59E0B" letter-spacing="-1">Business</text>
  <text x="470" y="340" font-family="'Plus Jakarta Sans', 'Inter', sans-serif" font-weight="800" font-size="58" fill="white" letter-spacing="-1">on AJKMart</text>
  <text x="470" y="400" font-family="'Inter', sans-serif" font-weight="400" font-size="22" fill="white" opacity="0.65">Reach millions of customers across AJK.</text>
  <circle cx="470" cy="510" r="16" fill="#00C48C"/>
  <circle cx="510" cy="510" r="16" fill="#FF9500"/>
  <circle cx="550" cy="510" r="16" fill="#FCD34D"/>
  <circle cx="590" cy="510" r="16" fill="#AF52DE"/>
  <circle cx="630" cy="510" r="16" fill="#FF6B35"/>
  <circle cx="670" cy="510" r="16" fill="#5856D6"/>
</svg>
